<svg xmlns="http://www.w3.org/2000/svg" viewBox="0 0 1692.253 1015.471">
    <title>CODE SYNC LOGO</title>
    <polygon points="1587.399 226.773 1587.399 331.623 1692.248 226.773 1587.399 226.773" style="fill:#fff"/>
    <polygon points="1364.162 226.773 1469.013 331.623 1469.013 226.773 1364.162 226.773" style="fill:#fff"/>
    <polygon points="1364.162 340.157 1469.012 445.005 1469.012 340.157 1364.162 340.157" style="fill:#fff"/>
    <polygon points="1360.627 448.542 1465.477 448.542 1360.627 343.694 1360.627 448.542" style="fill:#fff"/>
    <polygon points="1360.627 335.157 1465.477 335.157 1360.627 230.307 1360.627 335.157" style="fill:#fff"/>
    <polygon points="1587.402 0.001 1587.401 104.85 1692.25 0.001 1587.402 0.001" style="fill:#fff"/>
    <polygon points="1360.628 113.383 1360.628 218.232 1465.477 113.383 1360.628 113.383" style="fill:#fff"/>
    <polygon points="1364.161 108.385 1469.01 108.385 1469.01 3.538 1364.161 108.385" style="fill:#fff"/>
    <polygon points="1364.162 221.772 1469.012 221.772 1469.012 116.922 1364.162 221.772" style="fill:#fff"/>
    <polygon points="1587.401 448.539 1692.25 448.539 1587.401 343.69 1587.401 448.539" style="fill:#fff"/>
    <polygon points="1587.399 221.772 1692.248 221.772 1587.399 116.923 1587.399 221.772" style="fill:#fff"/>
    <polygon points="1360.628 0.002 1360.628 104.85 1465.477 0.002 1360.628 0.002" style="fill:#fff"/>
    <polygon points="1477.55 335.158 1582.4 335.158 1582.4 230.307 1477.55 335.158" style="fill:#fff"/>
    <polygon points="1477.551 340.157 1582.4 445.005 1582.4 340.157 1477.551 340.157" style="fill:#fff"/>
    <polygon points="1474.016 448.542 1578.866 448.542 1474.016 343.694 1474.016 448.542" style="fill:#fff"/>
    <polygon points="1474.017 226.772 1474.017 331.622 1578.867 226.772 1474.017 226.772" style="fill:#fff"/>
    <polygon points="1474.014 221.769 1578.863 221.769 1474.014 116.92 1474.014 221.769" style="fill:#fff"/>
    <polygon points="1477.55 108.385 1582.398 108.385 1582.398 3.538 1477.55 108.385" style="fill:#fff"/>
    <polygon points="1477.554 113.386 1582.402 218.234 1582.402 113.386 1477.554 113.386" style="fill:#fff"/>
    <polygon points="1474.017 0.002 1474.017 104.85 1578.866 0.002 1474.017 0.002" style="fill:#fff"/>
    <polygon points="1477.55 793.7 1582.397 898.553 1582.397 793.7 1477.55 793.7" style="fill:#fff"/>
    <polygon points="1364.165 793.704 1469.013 898.551 1469.013 793.704 1364.165 793.704" style="fill:#fff"/>
    <polygon points="1364.165 907.086 1469.013 1011.935 1469.013 907.086 1364.165 907.086" style="fill:#fff"/>
    <polygon points="1474.015 907.086 1474.015 1011.936 1578.864 907.086 1474.015 907.086" style="fill:#fff"/>
    <polygon points="1477.55 1015.471 1582.401 1015.471 1582.401 910.622 1477.55 1015.471" style="fill:#fff"/>
    <polygon points="1474.017 902.088 1578.864 902.088 1474.017 797.24 1474.017 902.088" style="fill:#fff"/>
    <polygon points="1360.63 902.086 1465.477 902.086 1360.63 797.237 1360.63 902.086" style="fill:#fff"/>
    <polygon points="1474.015 788.702 1578.864 788.702 1474.015 683.851 1474.015 788.702" style="fill:#fff"/>
    <polygon points="1477.55 566.932 1582.399 671.781 1582.399 566.932 1477.55 566.932" style="fill:#fff"/>
    <polygon points="1474.015 675.313 1578.864 675.313 1474.015 570.463 1474.015 675.313" style="fill:#fff"/>
    <polygon points="1360.63 680.313 1360.63 785.162 1465.477 680.313 1360.63 680.313" style="fill:#fff"/>
    <polygon points="1364.163 675.315 1469.013 675.315 1469.013 570.466 1364.163 675.315" style="fill:#fff"/>
    <polygon points="1364.163 788.702 1469.013 788.702 1469.013 683.852 1364.163 788.702" style="fill:#fff"/>
    <polygon points="1477.548 680.315 1582.399 785.165 1582.399 680.315 1477.548 680.315" style="fill:#fff"/>
    <polygon points="1587.403 902.086 1692.251 902.086 1587.403 797.237 1587.403 902.086" style="fill:#fff"/>
    <polygon points="1587.403 907.086 1587.403 1011.936 1692.251 907.086 1587.403 907.086" style="fill:#fff"/>
    <polygon points="1587.405 675.315 1692.253 675.315 1587.405 570.466 1587.405 675.315" style="fill:#fff"/>
    <polygon points="1587.405 680.317 1587.405 785.166 1692.253 680.317 1587.405 680.317" style="fill:#fff"/>
    <polygon points="116.92 226.771 221.768 331.624 221.768 226.771 116.92 226.771" style="fill:#fff"/>
    <polygon points="3.535 226.774 108.383 331.622 108.383 226.774 3.535 226.774" style="fill:#fff"/>
    <polygon points="3.535 340.157 108.383 445.006 108.383 340.157 3.535 340.157" style="fill:#fff"/>
    <polygon points="113.385 340.158 113.385 445.007 218.234 340.158 113.385 340.158" style="fill:#fff"/>
    <polygon points="116.92 448.543 221.771 448.543 221.771 343.693 116.92 448.543" style="fill:#fff"/>
    <polygon points="113.387 335.16 218.234 335.16 113.387 230.311 113.387 335.16" style="fill:#fff"/>
    <polygon points="0 335.157 104.848 335.157 0 230.308 0 335.157" style="fill:#fff"/>
    <polygon points="113.385 221.773 218.234 221.773 113.385 116.922 113.385 221.773" style="fill:#fff"/>
    <polygon points="116.92 0.002 221.769 104.852 221.769 0.002 116.92 0.002" style="fill:#fff"/>
    <polygon points="113.385 108.383 218.234 108.383 113.385 3.534 113.385 108.383" style="fill:#fff"/>
    <polygon points="0 113.383 0 218.232 104.848 113.383 0 113.383" style="fill:#fff"/>
    <polygon points="3.533 108.385 108.383 108.385 108.383 3.537 3.533 108.385" style="fill:#fff"/>
    <polygon points="3.533 221.772 108.383 221.772 108.383 116.923 3.533 221.772" style="fill:#fff"/>
    <polygon points="116.918 113.386 221.769 218.236 221.769 113.386 116.918 113.386" style="fill:#fff"/>
    <polygon points="226.773 335.157 331.621 335.157 226.773 230.308 226.773 335.157" style="fill:#fff"/>
    <polygon points="226.773 340.158 226.773 445.007 331.621 340.158 226.773 340.158" style="fill:#fff"/>
    <polygon points="226.775 108.386 331.623 108.386 226.775 3.537 226.775 108.386" style="fill:#fff"/>
    <polygon points="226.775 113.387 226.775 218.236 331.623 113.387 226.775 113.387" style="fill:#fff"/>
    <polygon points="113.384 793.702 113.384 898.55 218.236 793.702 113.384 793.702" style="fill:#fff"/>
    <polygon points="3.535 907.085 108.383 1011.933 108.383 907.085 3.535 907.085" style="fill:#fff"/>
    <polygon points="113.387 1015.471 218.236 1015.471 113.387 910.622 113.387 1015.471" style="fill:#fff"/>
    <polygon points="0 788.7 104.849 788.7 0 683.851 0 788.7" style="fill:#fff"/>
    <polygon points="116.922 907.085 221.771 1011.935 221.771 907.085 116.922 907.085" style="fill:#fff"/>
    <polygon points="116.922 902.085 221.771 902.085 221.771 797.235 116.922 902.085" style="fill:#fff"/>
    <polygon points="226.773 793.7 226.773 898.548 331.623 793.7 226.773 793.7" style="fill:#fff"/>
    <polygon points="116.919 680.315 221.768 785.164 221.768 680.315 116.919 680.315" style="fill:#fff"/>
    <polygon points="116.919 675.313 221.768 675.313 221.768 570.464 116.919 675.313" style="fill:#fff"/>
    <polygon points="113.387 566.928 113.387 671.778 218.236 566.928 113.387 566.928" style="fill:#fff"/>
    <polygon points="3.533 675.313 108.383 675.313 108.383 570.464 3.533 675.313" style="fill:#fff"/>
    <polygon points="3.534 680.315 108.384 785.165 108.384 680.315 3.534 680.315" style="fill:#fff"/>
    <polygon points="226.773 788.7 331.622 788.7 226.773 683.85 226.773 788.7" style="fill:#fff"/>
    <polygon points="113.384 788.7 218.234 788.7 113.384 683.851 113.384 788.7" style="fill:#fff"/>
    <polygon points="230.309 902.085 335.158 902.085 335.158 797.236 230.309 902.085" style="fill:#fff"/>
    <polygon points="3.539 793.698 108.389 898.547 108.389 793.698 3.539 793.698" style="fill:#fff"/>
    <polygon points="226.773 907.086 226.773 1011.935 331.622 907.086 226.773 907.086" style="fill:#fff"/>
    <polygon points="226.777 675.313 331.627 675.313 226.777 570.464 226.777 675.313" style="fill:#fff"/>
    <polygon points="566.929 226.773 566.929 331.622 671.778 226.773 566.929 226.773" style="fill:#fff"/>
    <polygon points="457.077 226.773 561.928 331.622 561.928 226.773 457.077 226.773" style="fill:#fff"/>
    <polygon points="457.077 340.157 561.926 445.006 561.926 340.157 457.077 340.157" style="fill:#fff"/>
    <polygon points="566.929 448.542 671.778 448.542 566.929 343.693 566.929 448.542" style="fill:#fff"/>
    <polygon points="570.464 340.157 675.313 445.006 675.313 340.157 570.464 340.157" style="fill:#fff"/>
    <polygon points="570.464 335.155 675.313 335.155 675.313 230.306 570.464 335.155" style="fill:#fff"/>
    <polygon points="453.542 335.157 558.391 335.157 453.542 230.306 453.542 335.157" style="fill:#fff"/>
    <polygon points="570.461 113.387 675.31 218.235 675.31 113.387 570.461 113.387" style="fill:#fff"/>
    <polygon points="570.461 108.385 675.31 108.385 675.31 3.536 570.461 108.385" style="fill:#fff"/>
    <polygon points="566.929 0 566.929 104.849 671.778 0 566.929 0" style="fill:#fff"/>
    <polygon points="453.544 113.383 453.544 218.231 558.393 113.383 453.544 113.383" style="fill:#fff"/>
    <polygon points="457.077 108.385 561.926 108.385 561.926 3.536 457.077 108.385" style="fill:#fff"/>
    <polygon points="457.077 221.771 561.926 221.771 561.926 116.922 457.077 221.771" style="fill:#fff"/>
    <polygon points="683.851 226.773 788.7 331.622 788.7 226.773 683.851 226.773" style="fill:#fff"/>
    <polygon points="683.851 221.771 788.7 221.771 788.7 116.922 683.851 221.771" style="fill:#fff"/>
    <polygon points="566.929 221.771 671.778 221.771 566.929 116.922 566.929 221.771" style="fill:#fff"/>
    <polygon points="680.315 335.157 785.165 335.157 680.315 230.306 680.315 335.157" style="fill:#fff"/>
    <polygon points="680.315 340.157 680.315 445.006 785.165 340.157 680.315 340.157" style="fill:#fff"/>
    <polygon points="680.317 108.387 785.167 108.387 680.317 3.536 680.317 108.387" style="fill:#fff"/>
    <polygon points="680.317 113.387 680.317 218.235 785.167 113.387 680.317 113.387" style="fill:#fff"/>
    <polygon points="566.928 793.702 566.928 898.55 671.777 793.702 566.928 793.702" style="fill:#fff"/>
    <polygon points="566.928 1015.469 671.777 1015.469 566.928 910.622 566.928 1015.469" style="fill:#fff"/>
    <polygon points="570.463 907.085 675.312 1011.934 675.312 907.085 570.463 907.085" style="fill:#fff"/>
    <polygon points="570.463 902.085 675.312 902.085 675.312 797.235 570.463 902.085" style="fill:#fff"/>
    <polygon points="570.46 680.315 675.31 785.164 675.31 680.315 570.46 680.315" style="fill:#fff"/>
    <polygon points="453.543 675.311 558.393 675.311 453.543 570.463 453.543 675.311" style="fill:#fff"/>
    <polygon points="453.543 680.315 453.543 785.164 558.393 680.315 453.543 680.315" style="fill:#fff"/>
    <polygon points="457.076 788.698 561.925 788.698 561.925 683.85 457.076 788.698" style="fill:#fff"/>
    <polygon points="457.076 793.7 561.925 898.549 561.925 793.7 457.076 793.7" style="fill:#fff"/>
    <polygon points="566.928 788.7 671.777 788.7 566.928 683.851 566.928 788.7" style="fill:#fff"/>
    <polygon points="683.852 675.313 788.701 675.313 788.701 570.464 683.852 675.313" style="fill:#fff"/>
    <polygon points="683.851 680.315 788.699 785.164 788.699 680.315 683.851 680.315" style="fill:#fff"/>
    <polygon points="680.316 788.7 785.166 788.7 680.316 683.851 680.316 788.7" style="fill:#fff"/>
    <polygon points="680.316 793.7 680.316 898.549 785.166 793.7 680.316 793.7" style="fill:#fff"/>
    <polygon points="1020.47 793.702 1020.47 898.551 1125.318 793.702 1020.47 793.702" style="fill:#fff"/>
    <polygon points="910.619 793.702 1015.469 898.551 1015.469 793.702 910.619 793.702" style="fill:#fff"/>
    <polygon points="910.619 907.086 1015.468 1011.934 1015.468 907.086 910.619 907.086" style="fill:#fff"/>
    <polygon points="907.084 1015.471 1011.934 1015.471 907.084 910.622 907.084 1015.471" style="fill:#fff"/>
    <polygon points="1024.005 907.086 1128.853 1011.935 1128.853 907.086 1024.005 907.086" style="fill:#fff"/>
    <polygon points="1024.005 902.085 1128.853 902.085 1128.853 797.236 1024.005 902.085" style="fill:#fff"/>
    <polygon points="907.084 902.086 1011.933 902.086 907.084 797.236 907.084 902.086" style="fill:#fff"/>
    <polygon points="907.084 680.311 907.084 785.161 1011.934 680.311 907.084 680.311" style="fill:#fff"/>
    <polygon points="910.619 788.7 1015.468 788.7 1015.468 683.851 910.619 788.7" style="fill:#fff"/>
    <polygon points="1137.391 793.702 1242.242 898.551 1242.242 793.702 1137.391 793.702" style="fill:#fff"/>
    <polygon points="1137.391 788.7 1242.242 788.7 1242.242 683.851 1137.391 788.7" style="fill:#fff"/>
    <polygon points="1137.391 1015.467 1242.242 1015.467 1242.242 910.62 1137.391 1015.467" style="fill:#fff"/>
    <polygon points="1020.47 788.7 1125.318 788.7 1020.47 683.851 1020.47 788.7" style="fill:#fff"/>
    <polygon points="1133.855 902.086 1238.707 902.086 1133.855 797.236 1133.855 902.086" style="fill:#fff"/>
    <polygon points="1133.855 907.086 1133.855 1011.935 1238.707 907.086 1133.855 907.086" style="fill:#fff"/>
    <polygon points="1137.391 566.93 1242.242 671.779 1242.242 566.93 1137.391 566.93" style="fill:#fff"/>
    <polygon points="1133.858 675.315 1238.707 675.315 1133.858 570.465 1133.858 675.315" style="fill:#fff"/>
    <polygon points="1133.858 680.315 1133.858 785.165 1238.707 680.315 1133.858 680.315" style="fill:#fff"/>
    <polygon points="907.086 675.313 1011.935 675.313 907.086 570.464 907.086 675.313" style="fill:#fff"/>
    <polygon points="1020.471 226.775 1020.471 331.624 1125.322 226.775 1020.471 226.775" style="fill:#fff"/>
    <polygon points="910.622 226.775 1015.471 331.624 1015.471 226.775 910.622 226.775" style="fill:#fff"/>
    <polygon points="910.623 448.544 1015.473 448.544 1015.473 343.695 910.623 448.544" style="fill:#fff"/>
    <polygon points="1020.471 448.544 1125.322 448.544 1020.471 343.695 1020.471 448.544" style="fill:#fff"/>
    <polygon points="907.087 340.159 907.087 445.008 1011.935 340.159 907.087 340.159" style="fill:#fff"/>
    <polygon points="1024.008 340.158 1128.857 445.008 1128.857 340.158 1024.008 340.158" style="fill:#fff"/>
    <polygon points="1024.008 335.157 1128.857 335.157 1128.857 230.309 1024.008 335.157" style="fill:#fff"/>
    <polygon points="907.087 335.158 1011.935 335.158 907.087 230.309 907.087 335.158" style="fill:#fff"/>
    <polygon points="1024.004 113.388 1128.852 218.238 1128.852 113.388 1024.004 113.388" style="fill:#fff"/>
    <polygon points="1024.004 108.387 1128.852 108.387 1128.852 3.538 1024.004 108.387" style="fill:#fff"/>
    <polygon points="1020.473 0.002 1020.473 104.851 1125.322 0.002 1020.473 0.002" style="fill:#fff"/>
    <polygon points="907.087 113.385 907.087 218.233 1011.935 113.385 907.087 113.385" style="fill:#fff"/>
    <polygon points="910.619 108.387 1015.469 108.387 1015.469 3.538 910.619 108.387" style="fill:#fff"/>
    <polygon points="910.619 221.773 1015.471 221.773 1015.471 116.924 910.619 221.773" style="fill:#fff"/>
    <polygon points="1137.394 226.775 1242.244 331.624 1242.244 226.775 1137.394 226.775" style="fill:#fff"/>
    <polygon points="1137.393 221.773 1242.244 221.773 1242.244 116.924 1137.393 221.773" style="fill:#fff"/>
    <polygon points="1020.471 221.773 1125.32 221.773 1020.471 116.924 1020.471 221.773" style="fill:#fff"/>
    <polygon points="1133.859 335.158 1238.709 335.158 1133.859 230.309 1133.859 335.158" style="fill:#fff"/>
    <polygon points="1133.859 340.159 1133.859 445.008 1238.709 340.159 1133.859 340.159" style="fill:#fff"/>
    <polygon points="1133.861 108.388 1238.71 108.388 1133.861 3.538 1133.861 108.388" style="fill:#fff"/>
    <polygon points="1133.861 113.389 1133.861 218.238 1238.71 113.389 1133.861 113.389" style="fill:#fff"/>
    <polygon points="907.087 0.002 907.087 104.851 1011.935 0.002 907.087 0.002" style="fill:#fff"/>
</svg>